<svg width="24.000000" height="24.000000" viewBox="0 0 24 24" fill="none" xmlns="http://www.w3.org/2000/svg" xmlns:xlink="http://www.w3.org/1999/xlink">
	<desc>
			Created with Pixso.
	</desc>
	<defs>
		<clipPath id="clip103_2228">
			<rect id="Icon-Facebook" rx="0.000000" width="23.000000" height="23.000000" transform="translate(0.500000 0.500000)" fill="white" fill-opacity="0"/>
		</clipPath>
	</defs>
	<g clip-path="url(#clip103_2228)">
		<path id="Vector" d="M13 10L17.5 10L17 12L13 12L13 21L11 21L11 12L7 12L7 10L11 10L11 8.12C11 6.34 11.18 5.69 11.53 5.04C11.87 4.4 12.4 3.87 13.04 3.53C13.69 3.18 14.34 3 16.12 3C16.65 3 17.1 3.05 17.5 3.14L17.5 5L16.12 5C14.8 5 14.4 5.07 13.99 5.29C13.68 5.45 13.46 5.68 13.29 5.98C13.07 6.4 13 6.8 13 8.12L13 10Z" fill="#FFFFFF" fill-opacity="1.000000" fill-rule="nonzero"/>
	</g>
</svg>
