<svg width="16.000000" height="16.000000" viewBox="0 0 16 16" fill="none" xmlns="http://www.w3.org/2000/svg" xmlns:xlink="http://www.w3.org/1999/xlink">
	<desc>
			Created with Pixso.
	</desc>
	<defs/>
	<rect id="Iconly/Bold/Download" rx="0.000000" width="14.999998" height="14.999998" transform="translate(0.500000 0.500000)" fill="#FFFFFF" fill-opacity="0"/>
	<path id="Download" d="M7.48 4.86L7.48 2.18C7.48 1.9 7.71 1.66 7.99 1.66C8.25 1.66 8.47 1.86 8.5 2.11L8.51 2.18L8.51 4.86L11.69 4.86C13.28 4.86 14.58 6.15 14.66 7.78L14.66 7.92L14.66 11.28C14.66 12.91 13.4 14.25 11.84 14.32L11.7 14.33L4.29 14.33C2.7 14.33 1.4 13.04 1.33 11.41L1.33 11.26L1.33 7.91C1.33 6.28 2.58 4.93 4.14 4.86L4.28 4.86L7.48 4.86L7.48 9.12L6.41 8.02C6.21 7.82 5.89 7.82 5.69 8.02C5.59 8.13 5.54 8.26 5.54 8.4C5.54 8.51 5.57 8.61 5.63 8.71L5.69 8.77L7.63 10.78C7.72 10.89 7.85 10.94 7.99 10.94C8.1 10.94 8.21 10.9 8.3 10.83L8.35 10.78L10.29 8.77C10.49 8.57 10.49 8.23 10.29 8.02C10.11 7.83 9.82 7.82 9.62 7.97L9.57 8.02L8.51 9.12L8.51 4.86L7.48 4.86Z" fill="#000000" fill-opacity="1.000000" fill-rule="nonzero"/>
</svg>
