<svg width="16.000000" height="16.000000" viewBox="0 0 16 16" fill="none" xmlns="http://www.w3.org/2000/svg" xmlns:xlink="http://www.w3.org/1999/xlink">
	<desc>
			Created with Pixso.
	</desc>
	<defs/>
	<rect id="Iconly/Bold/Paper Download" rx="0.000000" width="15.000000" height="15.000000" transform="translate(0.500000 0.500000)" fill="#FFFFFF" fill-opacity="0"/>
	<path id="Paper Download" d="M13.363 6.01337C13.0792 6.01337 12.7426 6.02005 12.538 6.02005C12.2409 6.02005 11.8383 6.01337 11.3432 6.01337C10.1287 6.00671 9.13861 5.00671 9.13861 3.78671L9.13861 1.64005C9.13861 1.47339 9 1.33337 8.83496 1.33337L5.31018 1.33337C3.66003 1.33337 2.33331 2.68671 2.33331 4.34003L2.33331 11.5267C2.33331 13.26 3.72607 14.6667 5.44885 14.6667L10.6964 14.6667C12.3333 14.6667 13.6666 13.3267 13.6666 11.6734L13.6666 6.31339C13.6666 6.1467 13.5346 6.01337 13.363 6.01337ZM11.4281 5.03946C11.8882 5.04413 12.5278 5.04611 13.0697 5.04413C13.3483 5.04346 13.4895 4.70813 13.2968 4.50613C12.5997 3.77411 11.3528 2.46411 10.6387 1.71478C10.442 1.50745 10.0967 1.65012 10.0967 1.93747L10.0967 3.69479C10.0967 4.43213 10.6981 5.03946 11.4281 5.03946ZM8.10236 11.0934L9.99677 9.18002C10.1882 8.98004 10.1882 8.66672 9.99011 8.47336C9.79871 8.28003 9.48846 8.28003 9.29706 8.47336L8.24756 9.54004L8.24756 6.32669C8.24756 6.04669 8.02972 5.82669 7.75909 5.82669C7.48846 5.82669 7.26404 6.04669 7.26404 6.32669L7.26404 9.54004L6.21454 8.47336C6.02313 8.28003 5.71289 8.28003 5.52148 8.47336C5.33008 8.66672 5.33008 8.98004 5.52148 9.18002L7.4093 11.0934C7.45551 11.14 7.5083 11.1734 7.56769 11.2C7.62708 11.2267 7.69312 11.2401 7.75909 11.2401C7.82513 11.2401 7.88452 11.2267 7.94391 11.2C8.00336 11.1734 8.05615 11.14 8.10236 11.0934Z" clip-rule="evenodd" fill="#000000" fill-opacity="1.000000" fill-rule="evenodd"/>
</svg>
