<svg width="16.000000" height="16.000000" viewBox="0 0 16 16" fill="none" xmlns="http://www.w3.org/2000/svg" xmlns:xlink="http://www.w3.org/1999/xlink">
	<desc>
			Created with Pixso.
	</desc>
	<defs/>
	<rect id="Iconly/Bold/Home" rx="0.000000" width="15.000002" height="15.000002" transform="translate(0.500000 0.500000) rotate(0.000000)" fill="#FFFFFF" fill-opacity="0"/>
	<path id="Home" d="M6.08 13.84L6.08 11.81C6.08 11.29 6.51 10.86 7.03 10.86L8.95 10.86C9.2 10.86 9.44 10.96 9.62 11.14C9.8 11.32 9.9 11.56 9.9 11.81L9.9 13.84C9.9 14.06 9.98 14.27 10.14 14.42C10.29 14.58 10.5 14.66 10.72 14.66L12.02 14.66C12.63 14.66 13.22 14.42 13.65 14C14.09 13.57 14.33 12.99 14.33 12.38L14.33 6.57C14.33 6.08 14.11 5.62 13.73 5.3L9.28 1.78C8.51 1.16 7.4 1.18 6.65 1.83L2.31 5.3C1.91 5.61 1.67 6.08 1.66 6.57L1.66 12.37C1.66 13.64 2.69 14.66 3.97 14.66L5.24 14.66C5.7 14.66 6.06 14.3 6.07 13.85L6.08 13.84Z" fill="#000000" fill-opacity="1.000000" fill-rule="nonzero"/>
</svg>
